<svg width="385" height="472" viewBox="0 0 385 472" fill="none" xmlns="http://www.w3.org/2000/svg">
<path fill-rule="evenodd" clip-rule="evenodd" d="M483.206 377.997C482.946 377.737 482.946 377.737 482.599 377.39C482.599 377.13 482.339 377.13 481.992 376.784C481.992 376.524 481.732 376.524 481.732 376.177C481.472 375.918 481.126 375.918 481.126 375.571C480.866 375.311 480.866 375.311 480.519 374.965C480.259 374.965 480.259 374.705 479.912 374.358C479.652 374.358 479.652 374.098 479.306 374.098C479.045 373.838 479.046 373.492 478.699 373.492C478.439 373.232 478.439 373.232 478.092 372.885C477.832 372.885 477.832 372.625 477.485 372.279C477.225 372.279 476.879 372.019 476.879 372.019C476.619 371.759 476.272 371.759 476.012 371.412C476.012 371.412 475.752 371.153 475.405 371.153C475.405 370.893 475.145 370.893 474.799 370.546C474.538 370.546 474.192 370.546 474.192 370.286C473.932 370.286 473.585 370.026 473.325 370.026C473.065 369.766 473.065 369.766 472.718 369.766C472.458 369.507 472.112 369.506 471.852 369.16C471.592 369.16 471.592 369.16 471.245 368.9C470.985 368.9 470.638 368.9 470.378 368.64C470.118 368.64 470.118 368.64 469.771 368.38C469.511 368.38 469.165 368.38 468.905 368.12C468.645 368.12 468.645 368.12 468.298 368.12C468.038 367.86 467.691 367.86 467.431 367.86C467.171 367.6 466.824 367.6 466.824 367.6C466.564 367.6 465.958 367.341 465.611 367.341C465.611 367.341 465.351 367.341 465.004 367.341C464.744 367.081 464.398 367.081 464.138 367.081C463.878 367.081 463.531 367.081 463.531 367.081C462.924 366.821 462.318 366.821 461.797 366.821C460.324 366.821 460.324 366.821 460.324 366.821C451.743 366.821 443.423 371.239 437.529 379.296C431.895 387.007 431.895 387.007 431.895 387.007C431.288 387.873 430.682 388.48 430.075 389.086C425.655 393.851 421.494 396.537 416.727 397.057C413.434 397.057 413.434 397.057 413.434 397.057C406.933 397.057 400.693 393.765 395.059 387.007C389.425 379.296 389.425 379.296 389.425 379.296C383.184 371.846 375.817 367.774 367.496 366.821C364.203 366.821 364.203 366.821 364.203 366.821C355.882 367.687 348.515 371.846 342.274 379.296C336.641 387.007 336.641 387.007 336.641 387.007C331.354 393.851 324.766 397.057 318.266 397.057C314.972 397.057 314.972 397.057 314.972 397.057C309.685 396.45 304.918 393.245 299.891 387.007C294.257 379.296 294.257 379.296 294.257 379.296C288.363 371.326 280.043 366.821 271.462 366.821C269.989 366.821 269.989 366.821 269.989 366.821C261.148 367.687 253.087 372.452 248.06 379.296C241.56 387.007 241.56 387.007 241.56 387.007C236.793 393.505 230.639 397.057 224.051 397.057C220.758 397.057 220.758 397.057 220.758 397.057C214.864 396.19 209.49 392.638 205.677 387.007C200.043 379.296 200.043 379.296 200.043 379.296C194.149 371.326 185.828 366.821 177.248 366.821C174.908 366.821 174.908 366.821 174.908 366.821C166.934 367.687 158.613 372.452 152.979 379.296C147.345 387.007 147.345 387.007 147.345 387.007C142.578 393.505 136.424 397.057 129.837 397.057C123.337 397.057 123.337 397.057 123.337 397.057C116.489 397.057 110.336 393.505 105.569 387.007C99.9348 379.296 99.9348 379.296 99.9348 379.296C94.301 372.452 85.9803 367.774 78.0063 366.821C75.6661 366.821 75.6662 366.821 75.6662 366.821C67.0855 366.821 58.7648 371.239 53.131 379.296C47.2372 387.007 47.2372 387.007 47.2372 387.007C43.4235 392.638 38.0498 396.19 32.156 397.057C28.8624 397.057 28.8624 397.057 28.8624 397.057C22.3619 397.057 16.1213 393.505 11.3543 387.007C11.3543 387.007 11.3543 387.007 9.01408 384.321C9.01408 336.845 9.01408 336.845 9.01408 336.845C9.27411 336.845 9.2741 336.845 9.2741 336.845L9.53411 337.105C9.79413 337.364 10.1408 337.711 10.4008 337.971L10.6609 338.231C10.9209 338.491 11.2676 338.491 11.5276 338.837L11.7877 339.097C12.0477 339.357 12.3944 339.357 12.6544 339.704L12.9144 339.964C13.1744 340.223 13.5211 340.223 13.7811 340.57C13.7811 340.57 14.0412 340.83 14.3879 340.83C14.3879 341.09 14.6479 341.09 14.9946 341.436C15.2546 341.436 15.2546 341.436 15.6013 341.696C15.8613 341.696 15.8613 341.696 16.208 341.956C16.468 341.956 16.468 342.216 16.8147 342.216C17.0747 342.216 17.4214 342.476 17.4214 342.476C17.6815 342.476 18.0282 342.736 18.0282 342.736C18.2882 342.736 18.6349 342.996 18.8949 342.996C18.8949 342.996 19.1549 342.996 19.5016 343.256C19.5016 343.256 19.7616 343.256 20.1083 343.516C20.3683 343.516 20.3683 343.516 20.715 343.516C20.9751 343.776 21.3218 343.776 21.3218 343.776C21.5818 343.776 21.9285 343.776 21.9285 344.035C22.1885 344.035 22.5352 344.035 22.7952 344.035C22.7952 344.035 23.0552 344.035 23.4019 344.295C23.6619 344.295 24.0086 344.295 24.0086 344.295C24.2686 344.295 24.6153 344.295 24.6153 344.295C24.8754 344.555 25.2221 344.555 25.4821 344.555C25.7421 344.555 25.7421 344.555 26.0888 344.555C26.4355 344.555 26.6955 344.555 26.9555 344.555C27.2156 344.555 27.2156 344.555 27.5623 344.555C27.8223 344.555 28.429 344.815 28.7757 344.815C30.5091 344.555 30.5091 344.555 30.5091 344.555C38.2231 343.949 45.3304 340.137 51.2242 333.552C51.4842 333.293 51.8309 332.686 52.0909 332.34C57.9847 324.369 57.9847 324.369 57.9847 324.369C62.7518 317.871 68.9056 314.319 76.3596 314.319C78.6997 314.319 78.6998 314.319 78.6998 314.319C84.5936 315.186 89.9673 318.738 93.7809 324.369C100.281 332.34 100.281 332.34 100.281 332.34C106.175 340.05 114.496 344.469 123.077 344.469C129.577 344.469 129.577 344.469 129.577 344.469C130.184 344.469 130.444 344.469 131.051 344.469C139.025 344.209 146.739 339.704 152.112 332.34C158.613 324.369 158.613 324.369 158.613 324.369C161.56 320.21 165.113 317.265 169.534 315.445C170.747 314.839 172.221 314.579 173.694 314.233C176.034 314.233 176.034 314.233 176.034 314.233C181.928 314.233 187.302 316.572 191.722 321.077C192.589 321.943 193.456 323.156 194.409 324.369C200.303 332.34 200.303 332.34 200.303 332.34C206.197 339.444 213.651 343.862 221.885 344.469C223.618 344.469 223.618 344.469 223.618 344.469C232.199 344.469 239.913 340.657 247.02 332.34C252.654 324.369 252.654 324.369 252.654 324.369C253.261 323.763 253.867 323.156 254.387 322.29C257.941 317.871 262.968 315.186 268.602 314.319C270.335 314.319 270.335 314.319 270.335 314.319C277.443 314.319 283.943 317.871 288.71 324.369C294.344 332.34 294.344 332.34 294.344 332.34C294.604 332.599 295.211 333.206 295.557 333.552C301.191 340.05 308.298 343.949 316.272 344.555C317.746 344.555 317.746 344.555 317.746 344.555C326.933 344.555 335.254 340.397 341.148 332.426C346.781 324.456 346.781 324.456 346.781 324.456C352.415 317.958 358.049 314.406 363.683 314.406C366.976 314.406 366.976 314.406 366.976 314.406C372.61 314.406 378.244 317.958 383.878 324.456C389.512 332.426 389.512 332.426 389.512 332.426C395.405 340.397 403.726 344.555 412.913 344.555C414.734 344.555 414.734 344.555 414.734 344.555C422.448 343.949 429.555 340.137 435.189 333.552C435.795 333.293 436.055 332.686 436.402 332.34C442.296 324.369 442.296 324.369 442.296 324.369C446.716 317.871 453.217 314.319 460.671 314.319C462.144 314.319 462.144 314.319 462.144 314.319C468.645 315.186 474.278 318.738 478.092 324.369C482.859 330.867 482.859 330.867 482.859 330.867C482.859 377.997 482.859 377.997 482.859 377.997C483.206 378.257 483.206 377.997 483.206 377.997ZM483.206 437.862C482.946 437.862 482.946 437.603 482.599 437.256C482.599 437.256 482.339 436.996 481.992 436.65C481.992 436.65 481.732 436.39 481.732 436.043C481.472 436.043 481.126 435.783 481.126 435.437C480.866 435.437 480.866 435.177 480.519 435.177C480.259 434.917 480.259 434.57 479.912 434.57C479.652 434.31 479.652 433.964 479.306 433.964C479.045 433.704 479.046 433.704 478.699 433.357C478.439 433.357 478.439 433.098 478.092 433.098C477.832 432.838 477.832 432.491 477.485 432.491C477.225 432.231 476.879 432.231 476.879 431.885C476.619 431.885 476.272 431.625 476.272 431.625C476.012 431.365 475.665 431.365 475.405 431.018C475.405 431.018 475.145 430.758 474.799 430.758C474.538 430.498 474.192 430.498 474.192 430.498C473.932 430.239 473.585 430.239 473.325 429.892C473.065 429.892 473.065 429.632 472.718 429.632C472.458 429.632 472.112 429.372 471.852 429.372C471.852 429.372 471.592 429.112 471.245 429.112C470.985 428.852 470.638 428.852 470.378 428.852C470.378 428.592 470.118 428.592 469.771 428.592C469.511 428.333 469.165 428.333 468.905 428.333C468.645 428.073 468.645 428.073 468.298 428.073C468.038 428.073 467.691 427.813 467.431 427.813C467.171 427.813 466.824 427.813 466.824 427.553C466.564 427.553 465.958 427.553 465.611 427.553C465.611 427.293 465.351 427.293 465.004 427.293C464.744 427.293 464.398 427.293 464.138 427.033C463.878 427.033 463.531 427.033 463.531 427.033C462.924 427.033 462.318 427.033 461.797 426.773C460.324 426.773 460.324 426.773 460.324 426.773C451.743 426.773 443.423 431.538 437.529 439.249C431.895 446.959 431.895 446.959 431.895 446.959C426.868 453.197 422.101 456.489 416.814 457.356C414.474 457.356 414.474 457.356 414.474 457.356C413.607 457.356 413.607 457.356 413.607 457.356C407.106 457.356 400.866 453.804 395.232 447.306C389.598 439.335 389.598 439.335 389.598 439.335C383.358 432.231 375.991 427.813 367.67 426.86C364.376 426.86 364.376 426.86 364.376 426.86C356.056 427.726 348.688 432.231 342.448 439.335C336.814 447.046 336.814 447.046 336.814 447.046C331.527 453.89 324.94 457.442 318.439 457.442C315.146 457.442 315.146 457.442 315.146 457.442C309.858 456.576 305.091 453.284 300.064 447.392C294.431 439.422 294.431 439.422 294.431 439.422C288.537 431.711 280.216 426.946 271.635 426.946C270.162 426.946 270.162 426.946 270.162 426.946C261.321 428.159 253.261 432.578 248.233 439.422C241.733 447.393 241.733 447.392 241.733 447.392C236.966 453.89 230.812 457.442 224.225 457.442C220.931 457.442 220.931 457.442 220.931 457.442C215.037 456.576 209.664 453.024 205.85 447.392C200.216 439.422 200.216 439.422 200.216 439.422C194.582 431.971 187.215 427.553 179.155 427.293C178.548 427.033 177.941 427.033 177.421 427.033C175.081 427.033 175.081 427.033 175.081 427.033C169.447 427.899 163.813 430.325 159.133 433.877C158.873 434.137 158.266 434.484 157.919 435.09C157.053 435.697 156.186 436.303 155.579 437.169C154.713 438.036 154.106 438.642 153.239 439.509C147.605 447.479 147.605 447.479 147.605 447.479C142.838 453.977 136.684 457.529 130.097 457.529C124.203 457.529 124.203 457.529 124.203 457.529C123.597 457.529 123.597 457.529 123.597 457.529C116.749 457.529 110.596 453.977 105.829 447.479C100.195 439.509 100.195 439.509 100.195 439.509C94.561 432.664 86.2404 428.246 78.2664 427.033C75.9262 427.033 75.9262 427.033 75.9262 427.033C67.3455 427.033 59.0248 431.798 53.391 439.509C47.4972 447.479 47.4972 447.479 47.4972 447.479C43.6836 453.111 38.3098 456.663 32.416 457.529C29.1224 457.529 29.1224 457.529 29.1224 457.529C28.5157 457.529 27.6489 457.529 26.7822 457.269C25.9155 457.269 25.3087 457.009 24.442 457.009C23.8353 456.749 23.5753 456.749 23.2286 456.403C18.8082 454.93 14.9079 451.984 11.7009 447.219C11.7009 447.219 11.701 447.219 9.3608 444.533C9.3608 397.057 9.3608 397.057 9.3608 397.057C9.62082 397.057 9.62081 397.057 9.62081 397.057C9.62081 397.317 9.88082 397.317 9.88082 397.663C10.1408 397.663 10.4875 397.923 10.7476 398.27L11.0076 398.53C11.2676 398.79 11.6143 399.136 11.8743 399.136C11.8743 399.396 12.1343 399.396 12.1343 399.743C12.3943 399.743 12.741 400.002 13.0011 400.002C13.0011 400.262 13.2611 400.262 13.2611 400.609C13.5211 400.609 13.8678 400.869 14.1279 400.869C14.1279 401.129 14.3878 401.129 14.7345 401.129C14.7345 401.389 14.9946 401.389 15.3413 401.735C15.6013 401.735 15.6013 401.995 15.948 401.995C16.2947 401.995 16.208 402.255 16.5547 402.255C16.8147 402.515 16.8147 402.515 17.1614 402.515C17.4215 402.775 17.7681 402.775 17.7681 402.775C18.0281 403.035 18.3748 403.035 18.3748 403.035C18.6349 403.295 18.9815 403.295 19.2416 403.295C19.2416 403.555 19.5016 403.555 19.8483 403.555C19.8483 403.555 20.1083 403.814 20.455 403.814C20.8017 403.814 20.7151 403.814 21.0617 404.074C21.3218 404.074 21.6684 404.074 21.6684 404.074C21.9284 404.334 22.2751 404.334 22.2751 404.334C22.5352 404.334 22.8819 404.334 23.1419 404.594C23.1419 404.594 23.4019 404.594 23.7486 404.594C24.0953 404.594 24.3553 404.594 24.3553 404.594C24.6154 404.854 24.9621 404.854 24.9621 404.854C25.2221 404.854 25.5688 404.854 25.8288 404.854C26.0888 404.854 26.0888 404.854 26.4355 404.854C26.6955 405.114 27.0422 405.114 27.3022 405.114C27.5622 405.114 27.5622 405.114 27.9089 405.114C28.169 405.114 28.7757 405.114 29.1224 405.114C30.8559 405.114 30.8559 405.114 30.8559 405.114C39.1765 404.248 46.5438 400.089 52.4376 392.638C58.3314 384.928 58.3314 384.928 58.3314 384.928C63.0985 378.083 69.2523 374.531 76.7062 374.531C79.0464 374.531 79.0464 374.531 79.0464 374.531C84.9402 375.398 90.314 379.296 94.1277 384.928C100.628 392.638 100.628 392.638 100.628 392.638C106.522 400.609 114.843 405.114 123.423 405.114C128.19 405.114 128.19 405.114 128.19 405.114C129.924 405.114 129.924 405.114 129.924 405.114C138.505 405.114 146.825 400.696 152.459 392.638C158.96 384.928 158.96 384.928 158.96 384.928C162.773 379.296 168.147 375.398 174.041 374.531C176.381 374.531 176.381 374.531 176.381 374.531C183.748 374.531 190.335 378.083 194.756 384.928C200.65 392.638 200.65 392.638 200.65 392.638C206.543 400.089 213.997 404.161 222.231 405.114C223.965 405.114 223.965 405.114 223.965 405.114C232.546 405.114 240.259 400.955 247.367 392.638C253.001 384.928 253.001 384.928 253.001 384.928C257.161 379.036 262.448 375.398 268.948 374.531C270.682 374.531 270.682 374.531 270.682 374.531C277.789 374.531 284.29 378.083 289.057 384.928C294.691 392.638 294.691 392.638 294.691 392.638C294.951 393.245 295.557 393.505 295.904 394.111C301.538 400.349 308.645 404.161 316.359 405.114C316.619 405.114 316.619 405.114 316.619 405.114C318.092 405.114 318.092 405.114 318.092 405.114C327.28 405.114 335.601 400.696 341.494 392.638C347.128 384.928 347.128 384.928 347.128 384.928C352.762 378.083 358.396 374.531 364.029 374.531C367.323 374.531 367.323 374.531 367.323 374.531C372.957 374.531 378.591 378.083 384.225 384.928C389.858 392.638 389.858 392.638 389.858 392.638C395.752 400.609 404.073 405.114 413.26 405.114C415.08 405.114 415.08 405.114 415.08 405.114C423.401 404.248 430.768 400.089 436.662 392.638C442.556 384.928 442.556 384.928 442.556 384.928C446.976 378.083 453.477 374.531 460.931 374.531C462.404 374.531 462.404 374.531 462.404 374.531C468.905 375.398 474.538 378.95 478.352 384.928C483.119 391.166 483.119 391.166 483.119 391.166C483.119 438.642 483.119 438.642 483.119 438.642C483.206 438.122 483.206 438.122 483.206 437.862ZM9.44745 456.489C9.44745 456.229 9.44745 456.229 9.44745 456.229C9.70747 456.489 9.70746 456.489 9.70746 456.489L9.96747 456.749C10.2275 457.009 10.5742 457.356 10.8342 457.356C10.8342 457.616 11.0943 457.616 11.0943 457.962C11.3543 457.962 11.701 458.222 11.961 458.569L12.221 458.828C12.481 459.088 12.8277 459.088 13.0878 459.435L13.3478 459.695C13.6078 459.955 13.9545 459.955 14.2145 460.301C14.2145 460.301 14.4745 460.301 14.8212 460.561C14.8212 460.561 15.0813 460.821 15.428 460.821C15.688 461.081 15.6879 461.081 16.0346 461.081C16.2947 461.341 16.2947 461.341 16.6414 461.687C16.9014 461.687 16.9014 461.688 17.2481 461.947C17.5081 461.947 17.8548 461.947 17.8548 462.207C18.1148 462.207 18.4615 462.207 18.4615 462.467C18.7216 462.467 19.0683 462.467 19.3283 462.727C19.3283 462.727 19.5883 462.727 19.9349 462.727C19.9349 462.987 20.195 462.987 20.5417 462.987C20.8017 463.247 20.8017 463.247 21.1484 463.247C21.4084 463.247 21.7551 463.507 21.7551 463.507C22.0151 463.507 22.3619 463.507 22.3619 463.507C22.6219 463.767 22.9686 463.767 23.2286 463.767C23.2286 463.767 23.4886 463.767 23.8353 463.767C24.0953 464.027 24.442 464.027 24.442 464.027C24.702 464.027 25.0487 464.027 25.0487 464.027C25.3087 464.027 25.6554 464.027 25.9155 464.287C26.1755 464.287 26.1755 464.287 26.5222 464.287C26.8689 464.287 27.1289 464.287 27.3889 464.287C27.6489 464.287 27.6489 464.287 27.9956 464.287C28.2557 464.287 28.8623 464.287 29.209 464.287C30.9425 464.287 30.9425 464.287 30.9425 464.287C39.2632 463.42 46.6305 459.262 52.5243 451.811C58.4181 444.1 58.4181 444.1 58.4181 444.1C63.1851 437.603 69.339 434.051 76.7929 434.051C79.1331 434.051 79.1331 434.051 79.1331 434.051C85.0269 434.917 90.4007 438.469 94.2143 444.1C100.715 451.811 100.715 451.811 100.715 451.811C106.609 459.781 114.929 464.287 123.51 464.287C124.117 464.287 124.117 464.287 124.117 464.287C124.983 464.287 124.983 464.287 124.983 464.287C128.277 464.287 128.277 464.287 128.277 464.287C130.011 464.287 130.011 464.287 130.011 464.287C138.591 464.287 146.565 459.868 152.546 452.157C159.046 444.187 159.046 444.187 159.046 444.187C162.86 438.556 168.234 435.004 174.127 434.137C176.468 434.137 176.468 434.137 176.468 434.137C183.835 434.137 190.422 437.689 194.842 444.187C200.736 452.158 200.736 452.157 200.736 452.157C206.63 459.262 214.084 463.42 222.318 464.287C224.051 464.287 224.051 464.287 224.051 464.287C232.632 464.287 240.346 460.475 247.453 451.811C253.087 444.1 253.087 444.1 253.087 444.1C257.247 438.469 262.535 434.917 269.035 434.051C270.769 434.051 270.769 434.051 270.769 434.051C277.876 434.051 284.376 437.603 289.143 444.1C294.777 452.071 294.777 452.071 294.777 452.071C295.037 452.331 295.644 452.937 295.991 453.284C301.624 459.781 308.732 463.334 316.446 464.287C316.706 464.287 316.706 464.287 316.706 464.287C318.179 464.287 318.179 464.287 318.179 464.287C327.367 464.287 335.687 459.868 341.581 451.811C347.215 444.1 347.215 444.1 347.215 444.1C352.849 437.256 358.482 434.051 364.116 434.051C367.41 434.051 367.41 434.051 367.41 434.051C373.044 434.051 378.677 437.343 384.311 444.1C389.945 451.811 389.945 451.811 389.945 451.811C395.839 459.781 404.159 464.287 413.347 464.287C415.167 464.287 415.167 464.287 415.167 464.287C422.881 463.42 429.988 459.868 435.622 453.284C436.229 452.677 436.489 452.417 436.835 451.811C442.729 444.1 442.729 444.1 442.729 444.1C447.15 437.603 453.65 434.051 461.104 434.051C462.577 434.051 462.578 434.051 462.578 434.051C469.078 434.917 474.712 438.469 478.525 444.1C483.292 450.598 483.292 450.598 483.292 450.598C483.292 472.257 483.292 472.257 483.292 472.257C9.27404 472.257 9.2741 472.257 9.2741 472.257V456.489H9.44745ZM9.44745 276.286C9.70747 276.286 9.70746 276.546 9.70746 276.546L9.96747 276.806C10.2275 277.066 10.5742 277.412 10.8342 277.412C10.8342 277.672 11.0943 277.672 11.0943 278.019C11.3543 278.019 11.701 278.279 11.961 278.625C11.961 278.625 12.221 278.625 12.221 278.885C12.481 279.145 12.8277 279.145 13.0878 279.491L13.3478 279.751C13.6078 279.751 13.9545 280.011 14.2145 280.358C14.2145 280.358 14.4745 280.358 14.8212 280.618C14.8212 280.618 15.0813 280.878 15.428 280.878C15.688 281.137 15.6879 281.138 16.0346 281.138C16.2947 281.397 16.2947 281.397 16.6414 281.744C16.9014 281.744 16.9014 281.744 17.2481 282.004C17.5081 282.004 17.8548 282.004 17.8548 282.264C18.1148 282.264 18.4615 282.264 18.4615 282.524C18.7216 282.524 19.0683 282.524 19.3283 282.784C19.3283 282.784 19.5883 282.784 19.9349 282.784C19.9349 283.043 20.195 283.043 20.5417 283.043C20.8884 283.043 20.8017 283.303 21.1484 283.303C21.4084 283.303 21.7551 283.303 21.7551 283.563C22.0151 283.563 22.3619 283.563 22.3619 283.563C22.6219 283.563 22.9686 283.823 23.2286 283.823C23.2286 283.823 23.4886 283.823 23.8353 283.823C24.182 283.823 24.442 284.083 24.442 284.083C24.702 284.083 25.0487 284.083 25.0487 284.083C25.3087 284.083 25.6554 284.083 25.9155 284.083C26.1755 284.083 26.1755 284.343 26.5222 284.343C26.8689 284.343 27.1289 284.343 27.3889 284.343C27.6489 284.343 27.6489 284.343 27.9956 284.343C28.2557 284.343 28.8623 284.343 29.209 284.343C30.9425 284.343 30.9425 284.343 30.9425 284.343C39.2632 283.477 46.6305 279.318 52.5243 271.867C58.4181 264.157 58.4181 264.157 58.4181 264.157C63.1851 257.659 69.339 254.107 76.7929 254.107C79.1331 254.107 79.1331 254.107 79.1331 254.107C85.0269 254.973 90.4007 258.525 94.2143 264.157C100.715 271.867 100.715 271.867 100.715 271.867C106.349 279.318 113.716 283.737 121.777 284.343C122.383 284.343 122.99 284.343 123.51 284.343C130.011 284.343 130.011 284.343 130.011 284.343C130.617 284.343 130.877 284.343 131.484 284.343C139.458 283.737 147.172 279.318 152.546 271.867C159.046 264.157 159.046 264.157 159.046 264.157C161.386 260.605 164.333 257.919 167.887 256.186C169.62 254.973 172.047 254.367 174.127 254.107C176.468 254.107 176.468 254.107 176.468 254.107C183.835 254.107 190.422 257.659 194.842 264.157C200.736 271.867 200.736 271.867 200.736 271.867C201.95 273.34 203.076 274.553 204.29 275.679C209.577 280.704 215.817 283.65 222.318 284.256C224.051 284.256 224.051 284.256 224.051 284.256C232.632 284.256 240.346 280.098 247.453 271.781C253.087 264.07 253.087 264.07 253.087 264.07C257.247 258.179 262.535 254.887 269.035 254.02C270.769 254.02 270.769 254.02 270.769 254.02C277.876 254.02 284.376 257.572 289.143 264.07C294.777 271.781 294.777 271.781 294.777 271.781C295.037 272.387 295.644 272.647 295.991 273.254C301.624 279.751 308.732 283.303 316.706 284.256C318.179 284.256 318.179 284.256 318.179 284.256C318.786 284.256 319.393 284.256 319.999 284.256C328.58 283.65 336.294 279.491 341.581 271.781C347.215 264.07 347.215 264.07 347.215 264.07C352.849 257.226 358.482 254.02 364.116 254.02C367.41 254.02 367.41 254.02 367.41 254.02C373.044 254.02 378.677 257.313 384.311 264.07C389.945 271.781 389.945 271.781 389.945 271.781C395.839 279.751 404.159 284.256 413.347 284.256C415.167 284.256 415.167 284.256 415.167 284.256C422.881 283.39 429.988 279.838 435.622 273.254C436.229 272.647 436.489 272.387 436.835 271.781C442.729 264.07 442.729 264.07 442.729 264.07C447.15 257.572 453.65 254.02 461.104 254.02C462.577 254.02 462.578 254.02 462.578 254.02C469.078 254.887 474.712 258.179 478.525 264.07C483.292 270.568 483.292 270.568 483.292 270.568C483.292 317.698 483.292 317.698 483.292 317.698C483.032 317.438 483.033 317.438 483.033 317.438C482.772 317.178 482.772 316.832 482.426 316.832C482.426 316.572 482.166 316.225 481.819 316.225C481.819 315.965 481.559 315.619 481.559 315.619C481.299 315.359 480.952 315.012 480.952 315.012C480.692 314.752 480.692 314.406 480.346 314.406C480.086 314.146 480.086 314.146 479.739 313.799C479.479 313.539 479.479 313.539 479.132 313.193C478.872 313.193 478.872 312.933 478.525 312.586C478.265 312.586 478.265 312.327 477.919 312.327C477.659 312.067 477.659 312.067 477.312 311.72C477.052 311.72 476.705 311.46 476.705 311.46C476.445 311.2 476.099 311.2 476.099 310.854C475.839 310.854 475.492 310.594 475.232 310.594C475.232 310.334 474.972 310.334 474.625 309.987C474.365 309.987 474.018 309.727 474.018 309.727C473.758 309.468 473.412 309.468 473.152 309.468C472.892 309.208 472.892 309.208 472.545 308.861C472.285 308.861 471.938 308.861 471.678 308.601C471.678 308.601 471.418 308.341 471.072 308.341C470.811 308.341 470.465 308.081 470.205 308.081C470.205 308.081 469.945 307.821 469.598 307.821C469.338 307.821 468.991 307.562 468.731 307.562C468.471 307.562 468.471 307.302 468.125 307.302C467.865 307.302 467.518 307.302 467.258 307.042C466.998 307.042 466.651 307.042 466.651 307.042C466.391 306.782 465.784 306.782 465.438 306.782C465.438 306.782 465.178 306.782 464.831 306.522C464.571 306.522 464.224 306.522 463.964 306.522C463.704 306.522 463.358 306.262 463.358 306.262C462.751 306.262 462.144 306.262 461.624 306.262C460.151 306.262 460.151 306.262 460.151 306.262C451.57 306.262 443.249 310.68 437.355 318.391C431.722 326.362 431.722 326.362 431.722 326.362C431.462 326.622 431.115 326.968 430.855 327.228C430.855 327.488 430.855 327.488 430.855 327.488C430.595 327.748 430.248 328.094 429.988 328.354C429.728 328.354 429.728 328.614 429.728 328.614C429.468 328.874 429.121 329.221 429.121 329.221C424.961 333.379 421.147 335.718 416.727 336.325C413.434 336.325 413.434 336.325 413.434 336.325C412.567 336.325 411.96 336.325 411.093 336.325C405.46 335.458 399.826 331.906 395.145 326.275C389.512 318.304 389.512 318.304 389.512 318.304C383.271 311.2 375.904 307.042 367.583 306.175C364.289 306.175 364.29 306.175 364.29 306.175C355.969 307.042 348.602 311.2 342.361 318.304C336.727 326.275 336.727 326.275 336.727 326.275C331.44 332.773 324.853 336.325 318.353 336.325C315.059 336.325 315.059 336.325 315.059 336.325C309.772 335.458 305.005 332.166 299.978 326.275C294.344 318.304 294.344 318.304 294.344 318.304C288.45 310.594 280.129 306.175 271.549 306.175C270.075 306.175 270.075 306.175 270.075 306.175C261.235 307.042 253.174 311.547 248.147 318.304C241.646 326.275 241.646 326.275 241.646 326.275C236.879 332.773 230.725 336.325 224.138 336.325C220.845 336.325 220.845 336.325 220.845 336.325C214.951 335.458 209.577 331.906 205.763 326.275C200.13 318.304 200.13 318.304 200.13 318.304C194.236 310.594 185.915 306.175 177.334 306.175C174.994 306.175 174.994 306.175 174.994 306.175C169.36 306.782 163.727 309.121 159.046 312.673C156.966 314.492 154.886 316.225 153.152 318.304C147.519 326.275 147.519 326.275 147.519 326.275C142.752 332.773 136.598 336.325 130.011 336.325C123.51 336.325 123.51 336.325 123.51 336.325C116.663 336.325 110.509 332.773 105.742 326.275C100.108 318.304 100.108 318.304 100.108 318.304C94.4743 311.807 86.1537 307.042 78.1797 306.175C75.8395 306.175 75.8395 306.175 75.8395 306.175C67.2588 306.175 58.9381 310.594 53.3043 318.304C47.4105 326.275 47.4105 326.275 47.4105 326.275C43.5969 331.906 38.2231 335.458 32.3293 336.325C29.0357 336.325 29.0357 336.325 29.0357 336.325C28.1689 336.325 27.3022 336.325 26.0888 336.065C25.8288 336.065 25.4821 336.065 25.2221 336.065C23.7486 335.805 22.5352 335.199 21.0617 334.592L20.8017 334.332C20.195 334.072 19.5883 333.726 19.0682 333.466C16.3813 331.646 13.7811 329.307 11.7009 326.362C11.7009 326.362 11.701 326.362 10.4875 324.889C10.2275 324.629 9.88081 324.022 9.2741 323.676V276.286H9.44745ZM483.206 197.967C482.946 197.707 482.946 197.36 482.599 197.36C482.599 197.1 482.339 196.754 481.992 196.754C481.992 196.494 481.732 196.147 481.732 196.147C481.472 195.887 481.126 195.541 481.126 195.541C480.866 195.281 480.866 195.281 480.519 194.934C480.259 194.674 480.259 194.674 479.912 194.328C479.652 194.328 479.652 194.068 479.306 193.722C479.045 193.722 479.046 193.462 478.699 193.462C478.439 193.202 478.439 193.202 478.092 192.855C477.832 192.595 477.832 192.595 477.485 192.249C477.225 192.249 476.879 191.989 476.879 191.989C476.619 191.729 476.272 191.729 476.012 191.382C476.012 191.382 475.752 191.122 475.405 191.122C475.405 190.863 475.145 190.863 474.799 190.516C474.538 190.516 474.192 190.256 474.192 190.256C473.932 190.256 473.585 189.996 473.325 189.996C473.065 189.736 473.065 189.736 472.718 189.736C472.458 189.476 472.112 189.476 471.852 189.13C471.852 189.13 471.592 189.13 471.245 188.87C470.985 188.87 470.638 188.87 470.378 188.61C470.378 188.61 470.118 188.61 469.771 188.35C469.511 188.35 469.165 188.35 468.905 188.09C468.645 188.09 468.645 188.09 468.298 187.83C468.038 187.83 467.691 187.83 467.431 187.83C467.171 187.57 466.824 187.57 466.824 187.57C466.564 187.57 465.958 187.31 465.611 187.31C465.611 187.31 465.351 187.31 465.004 187.31C464.744 187.051 464.398 187.051 464.138 187.051C463.878 187.051 463.531 187.051 463.531 187.051C462.924 186.791 462.318 186.791 461.797 186.791C460.324 186.791 460.324 186.791 460.324 186.791C451.743 186.791 443.423 191.209 437.529 199.266C431.895 206.977 431.895 206.977 431.895 206.977C426.868 213.215 422.101 216.507 416.814 217.027C414.474 217.027 414.474 217.027 414.474 217.027C413.607 217.027 413.607 217.027 413.607 217.027C411.267 217.027 408.84 216.767 406.5 215.554C405.286 215.294 404.159 214.687 402.946 213.734C401.473 212.868 399.999 211.655 398.526 210.442C398.526 210.442 398.526 210.442 398.526 210.182C397.659 209.576 397.052 208.969 396.445 208.103C395.839 207.843 395.579 207.237 395.232 206.89C389.598 199.18 389.598 199.18 389.598 199.18C383.358 191.729 375.991 187.657 367.67 186.704C364.376 186.704 364.376 186.704 364.376 186.704C362.296 186.964 360.216 187.31 358.136 187.917C352.502 189.996 347.215 193.548 342.448 199.18C336.814 206.89 336.814 206.89 336.814 206.89C331.527 213.388 324.94 216.94 318.439 216.94C317.572 216.94 317.572 216.94 317.572 216.94C315.232 216.94 315.232 216.94 315.232 216.94C311.679 216.334 308.125 214.861 304.831 211.915C303.098 210.442 301.538 208.623 300.064 206.89C294.431 199.18 294.431 199.18 294.431 199.18C291.137 194.761 287.063 191.209 282.556 189.13C279.263 187.657 275.449 186.791 271.635 186.791C270.162 186.791 270.162 186.791 270.162 186.791C261.321 187.657 253.261 192.422 248.233 199.266C241.733 206.977 241.733 206.977 241.733 206.977C236.966 213.475 230.812 217.027 224.225 217.027C220.931 217.027 220.931 217.027 220.931 217.027C219.458 217.027 217.984 216.42 216.511 215.814C212.351 214.341 208.797 211.049 205.85 206.89C200.216 199.18 200.216 199.18 200.216 199.18C194.322 191.209 186.002 186.704 177.421 186.704C175.081 186.704 175.081 186.704 175.081 186.704C171.527 186.964 167.974 188.177 164.68 189.996C160.26 192.075 156.359 195.368 153.152 199.18C147.519 206.89 147.519 206.89 147.519 206.89C143.705 212.262 138.938 215.467 133.564 216.68C132.351 216.94 131.224 216.94 130.011 216.94C124.117 216.94 124.117 216.94 124.117 216.94C123.51 216.94 123.51 216.94 123.51 216.94C116.663 216.94 110.509 213.388 105.742 206.89C100.108 199.18 100.108 199.18 100.108 199.18C94.4743 192.335 86.1537 187.657 78.1797 186.704C75.8395 186.704 75.8395 186.704 75.8395 186.704C72.5459 186.704 69.599 187.31 66.3921 188.523C61.365 190.603 56.9446 194.155 53.391 199.18C47.4972 206.89 47.4972 206.89 47.4972 206.89C43.6836 212.522 38.3098 216.074 32.416 216.94C29.1224 216.94 29.1224 216.94 29.1224 216.94C27.909 216.94 26.7822 216.94 25.5687 216.68C23.2285 216.074 21.1484 215.207 19.0682 213.994C18.8082 213.734 18.4615 213.734 18.2015 213.388C16.988 212.522 15.5146 211.309 14.3879 210.096C13.5211 209.229 12.6544 208.016 11.7009 206.804C10.8342 205.591 10.8342 205.591 10.8342 205.591C9.36076 204.118 9.3608 204.118 9.3608 204.118C9.3608 156.641 9.3608 156.641 9.3608 156.641C9.62082 156.641 9.62081 156.641 9.62081 156.641L9.88082 156.901C10.1408 157.161 10.4875 157.508 10.7476 157.508C10.7476 157.767 11.0076 157.767 11.0076 158.114C11.2676 158.374 11.6143 158.374 11.8743 158.72L12.1343 158.98C12.3943 159.24 12.741 159.24 13.0011 159.587C13.0011 159.587 13.2611 159.847 13.6078 159.847C13.6078 160.107 13.8678 160.107 14.2145 160.453C14.2145 160.453 14.4745 160.713 14.8212 160.713C14.8212 160.713 15.0813 160.973 15.428 160.973C15.688 161.233 15.6879 161.233 16.0346 161.579C16.2947 161.579 16.2947 161.579 16.6414 161.839C16.9014 161.839 16.9014 161.839 17.2481 162.099C17.5081 162.099 17.8548 162.359 17.8548 162.359C18.1148 162.359 18.4615 162.359 18.4615 162.619C18.7216 162.619 19.0683 162.619 19.3283 162.879C19.3283 162.879 19.5883 162.879 19.9349 163.139C19.9349 163.139 20.195 163.139 20.5417 163.139C20.8017 163.399 20.8017 163.399 21.1484 163.399C21.4084 163.399 21.7551 163.659 21.7551 163.659C22.0151 163.659 22.3619 163.659 22.3619 163.659C22.6219 163.919 22.9686 163.919 23.2286 163.919C23.2286 163.919 23.4886 163.919 23.8353 163.919C24.0953 164.179 24.442 164.179 24.442 164.179C24.702 164.179 25.0487 164.179 25.0487 164.179C25.3087 164.179 25.6554 164.438 25.9155 164.438C26.1755 164.438 26.1755 164.438 26.5222 164.438C26.8689 164.438 27.1289 164.438 27.3889 164.438C27.6489 164.438 27.6489 164.438 27.9956 164.438C28.2557 164.438 28.8623 164.438 29.209 164.438C30.9425 164.438 30.9425 164.438 30.9425 164.438C32.416 164.438 33.8895 164.179 35.3629 163.572C36.5763 163.572 37.443 163.312 38.3098 162.706C39.5232 162.446 40.39 162.099 41.2567 161.493C45.417 159.414 49.2307 156.121 52.5243 152.309C58.4181 144.339 58.4181 144.339 58.4181 144.339C63.1851 137.841 69.339 134.289 76.7929 134.289C79.1331 134.289 79.1331 134.289 79.1331 134.289C82.6867 134.895 86.2404 136.368 89.534 139.054C91.2674 140.527 92.8276 142.346 94.301 144.425C100.802 152.396 100.802 152.396 100.802 152.396C106.695 160.107 115.016 164.525 123.597 164.525C125.07 164.525 125.07 164.525 125.07 164.525C126.804 164.525 126.804 164.525 126.804 164.525C128.277 164.525 128.277 164.525 128.277 164.525C130.011 164.525 130.011 164.525 130.011 164.525C138.591 164.525 146.565 160.107 152.546 152.396C159.046 144.425 159.046 144.425 159.046 144.425C162.86 138.794 168.234 135.242 174.127 134.376C176.468 134.376 176.468 134.376 176.468 134.376C179.761 134.376 182.708 134.982 185.655 136.455C189.209 137.928 192.156 140.873 194.842 144.425C200.736 152.396 200.736 152.396 200.736 152.396C206.63 159.5 214.084 163.659 222.318 164.525C224.051 164.525 224.051 164.525 224.051 164.525C232.632 164.525 240.346 160.713 247.453 152.396C253.087 144.425 253.087 144.425 253.087 144.425C257.247 138.794 262.535 135.242 269.035 134.376C270.769 134.376 270.769 134.376 270.769 134.376C273.716 134.376 277.009 134.982 279.609 136.455C283.163 137.928 286.457 140.873 289.057 144.425C294.691 152.396 294.691 152.396 294.691 152.396C300.584 159.5 308.298 163.659 316.619 164.525C318.092 164.525 318.092 164.525 318.092 164.525C327.28 164.525 335.601 160.367 341.494 152.396C347.128 144.425 347.128 144.425 347.128 144.425C352.762 137.581 358.396 134.376 364.029 134.376C367.323 134.376 367.323 134.376 367.323 134.376C368.797 134.376 370.27 134.636 371.483 134.982C375.904 136.195 380.064 139.401 384.225 144.512C389.858 152.483 389.858 152.483 389.858 152.483C395.752 160.453 404.073 164.612 413.26 164.612C415.08 164.612 415.08 164.612 415.08 164.612C423.401 163.745 430.768 159.587 436.662 152.483C442.556 144.512 442.556 144.512 442.556 144.512C446.976 138.014 453.477 134.462 460.931 134.462C462.404 134.462 462.404 134.462 462.404 134.462C468.905 135.329 474.538 138.881 478.352 144.512C483.119 151.01 483.119 151.01 483.119 151.01C483.119 198.14 483.119 198.14 483.119 198.14C483.206 198.313 483.206 197.967 483.206 197.967ZM483.206 257.919C482.946 257.659 482.946 257.659 482.599 257.313C482.599 257.053 482.339 257.053 481.992 256.706C481.992 256.446 481.732 256.446 481.732 256.1C481.472 256.1 481.126 255.84 481.126 255.493C480.866 255.493 480.866 255.233 480.519 254.887C480.259 254.887 480.259 254.627 479.912 254.627C479.652 254.367 479.652 254.02 479.306 254.02C479.045 253.76 479.046 253.76 478.699 253.414C478.439 253.154 478.439 253.154 478.092 252.807C477.832 252.807 477.832 252.548 477.485 252.548C477.225 252.288 476.879 252.288 476.879 251.941C476.619 251.941 476.272 251.681 476.012 251.681C476.012 251.421 475.752 251.421 475.405 251.075C475.405 251.075 475.145 250.815 474.799 250.815C474.538 250.555 474.192 250.555 474.192 250.208C473.932 250.208 473.585 250.208 473.325 249.948C473.065 249.948 473.065 249.689 472.718 249.689C472.458 249.689 472.112 249.429 471.852 249.429C471.852 249.169 471.592 249.169 471.245 249.169C470.985 248.909 470.638 248.909 470.378 248.909C470.378 248.649 470.118 248.649 469.771 248.649C469.511 248.389 469.165 248.389 468.905 248.389C468.645 248.129 468.645 248.129 468.298 248.129C468.038 247.869 467.691 247.869 467.431 247.869C467.171 247.869 466.824 247.609 466.824 247.609C466.564 247.609 465.958 247.609 465.611 247.349C465.611 247.349 465.351 247.349 465.004 247.349C464.744 247.349 464.398 247.349 464.138 247.089C463.878 247.089 463.531 247.089 463.531 247.089C462.924 247.089 462.318 246.83 461.797 246.83C460.324 246.83 460.324 246.83 460.324 246.83C451.743 246.83 443.423 251.248 437.529 259.305C431.895 267.016 431.895 267.016 431.895 267.016C426.868 273.254 422.101 276.546 416.814 277.412C414.474 277.412 414.474 277.412 414.474 277.412C413.607 277.412 413.607 277.412 413.607 277.412C407.366 277.412 401.473 274.12 396.445 268.229C395.839 267.969 395.579 267.622 395.232 267.016C389.598 259.305 389.598 259.305 389.598 259.305C383.358 252.201 375.991 247.783 367.67 246.83C364.376 246.83 364.376 246.83 364.376 246.83C356.056 247.696 348.688 252.201 342.448 259.305C336.814 267.016 336.814 267.016 336.814 267.016C331.527 273.86 324.94 277.412 318.439 277.412C317.572 277.412 317.572 277.412 317.572 277.412C315.232 277.412 315.232 277.412 315.232 277.412C309.945 276.546 305.178 273.254 300.151 267.016C294.517 259.305 294.517 259.305 294.517 259.305C288.623 251.335 280.303 246.83 271.722 246.83C270.249 246.83 270.249 246.83 270.249 246.83C261.408 247.696 253.347 252.461 248.32 259.305C241.82 267.016 241.82 267.016 241.82 267.016C237.053 273.86 230.899 277.412 224.312 277.412C221.018 277.412 221.018 277.412 221.018 277.412C215.124 276.546 209.75 272.994 205.937 267.016C200.303 259.305 200.303 259.305 200.303 259.305C194.409 251.335 186.088 246.83 177.508 246.83C175.168 246.83 175.168 246.83 175.168 246.83C167.194 247.696 158.873 252.461 153.239 259.305C147.605 267.016 147.605 267.016 147.605 267.016C143.445 272.907 138.158 276.199 132.524 277.066C131.657 277.326 131.051 277.326 130.184 277.326C129.317 277.326 129.317 277.326 129.317 277.326C126.977 277.326 126.977 277.326 126.977 277.326C124.29 277.326 124.29 277.326 124.29 277.326C123.683 277.326 123.683 277.326 123.683 277.326C123.077 277.326 122.817 277.326 122.21 277.326C115.969 276.719 110.336 273.167 105.915 266.929C100.281 259.219 100.281 259.219 100.281 259.219C94.6477 252.374 86.327 247.696 78.353 246.743C76.0128 246.743 76.0128 246.743 76.0128 246.743C67.4321 246.743 59.1115 251.161 53.4777 259.219C47.5839 266.929 47.5839 266.929 47.5839 266.929C43.7702 272.82 38.3964 276.459 32.5026 277.326C29.209 277.326 29.209 277.326 29.209 277.326C22.7085 277.326 16.468 273.773 11.7009 266.929C11.7009 266.929 11.701 266.929 11.0943 266.323C10.8343 266.063 10.2275 265.11 9.3608 264.243C9.3608 216.767 9.3608 216.767 9.3608 216.767C9.62082 216.767 9.62081 216.767 9.62081 216.767C9.62081 217.027 9.88082 217.027 9.88082 217.373C10.1408 217.373 10.4875 217.633 10.7476 217.98L11.0076 218.24C11.2676 218.499 11.6143 218.846 11.8743 218.846C11.8743 219.106 12.1343 219.106 12.1343 219.452C12.3943 219.452 12.741 219.712 13.0011 219.712C13.0011 219.972 13.2611 219.972 13.6078 220.319C13.6078 220.319 13.8678 220.579 14.2145 220.579C14.2145 220.839 14.4745 220.839 14.8212 220.839C14.8212 221.099 15.0813 221.099 15.428 221.445C15.688 221.445 15.6879 221.705 16.0346 221.705C16.3813 221.705 16.2947 221.965 16.6414 221.965C16.9881 221.965 16.9014 222.225 17.2481 222.225C17.5081 222.485 17.8548 222.485 17.8548 222.485C18.1148 222.745 18.4615 222.745 18.4615 222.745C18.7216 223.005 19.0683 223.005 19.3283 223.005C19.3283 223.005 19.5883 223.264 19.9349 223.264C19.9349 223.264 20.195 223.524 20.5417 223.524C20.8884 223.524 20.8017 223.524 21.1484 223.524C21.4084 223.784 21.7551 223.784 21.7551 223.784C22.0151 223.784 22.3619 224.044 22.3619 224.044C22.6219 224.044 22.9686 224.044 23.2286 224.044C23.2286 224.304 23.4886 224.304 23.8353 224.304C24.182 224.304 24.442 224.304 24.442 224.304C24.702 224.304 25.0487 224.564 25.0487 224.564C25.3087 224.564 25.6554 224.564 25.9155 224.564C26.1755 224.564 26.1755 224.564 26.5222 224.564C26.8689 224.564 27.1289 224.564 27.3889 224.824C27.6489 224.824 27.6489 224.824 27.9956 224.824C28.2557 224.824 28.8623 224.824 29.209 224.824C30.9425 224.824 30.9425 224.824 30.9425 224.824C33.0227 224.564 35.1028 224.217 36.8363 223.351C42.7301 221.532 48.1039 217.72 52.5243 212.348C58.4181 204.638 58.4181 204.638 58.4181 204.638C63.1851 197.793 69.339 194.241 76.7929 194.241C79.1331 194.241 79.1331 194.241 79.1331 194.241C82.6867 194.848 86.2404 196.58 89.534 199.006C91.2674 200.479 92.8276 202.298 94.301 204.638C100.802 212.348 100.802 212.348 100.802 212.348C106.695 220.319 115.016 224.824 123.597 224.824C125.07 224.824 125.07 224.824 125.07 224.824C126.804 224.824 126.804 224.824 126.804 224.824C128.277 224.824 128.277 224.824 128.277 224.824C130.011 224.824 130.011 224.824 130.011 224.824C138.591 224.824 146.565 220.405 152.546 212.348C159.046 204.638 159.046 204.638 159.046 204.638C162.86 198.746 168.234 195.108 174.127 194.241C176.468 194.241 176.468 194.241 176.468 194.241C177.681 194.241 178.548 194.241 179.415 194.501C180.021 194.501 180.888 194.761 181.755 194.761C182.361 195.021 182.621 195.021 183.228 195.368C187.649 196.84 191.809 199.786 194.756 204.551C200.65 212.262 200.65 212.262 200.65 212.262C206.543 219.366 213.997 223.784 222.231 224.737C223.965 224.737 223.965 224.737 223.965 224.737C232.546 224.737 240.259 220.579 247.367 212.262C253.001 204.551 253.001 204.551 253.001 204.551C257.161 198.66 262.448 195.021 268.948 194.155C270.682 194.155 270.682 194.155 270.682 194.155C277.789 194.155 284.29 197.707 289.057 204.551C294.691 212.262 294.691 212.262 294.691 212.262C300.584 219.366 308.298 223.784 316.619 224.737C318.092 224.737 318.092 224.737 318.092 224.737C327.28 224.737 335.601 220.319 341.494 212.262C347.128 204.551 347.128 204.551 347.128 204.551C352.762 197.707 358.396 194.155 364.029 194.155C367.323 194.155 367.323 194.155 367.323 194.155C368.797 194.155 370.27 194.415 371.483 194.761C375.904 196.234 380.064 199.526 384.225 204.551C389.858 212.262 389.858 212.262 389.858 212.262C395.752 220.232 404.073 224.737 413.26 224.737C415.08 224.737 415.08 224.737 415.08 224.737C423.401 223.871 430.768 219.366 436.662 212.262C442.556 204.551 442.556 204.551 442.556 204.551C446.976 197.707 453.477 194.155 460.931 194.155C462.404 194.155 462.404 194.155 462.404 194.155C468.905 195.021 474.538 198.573 478.352 204.551C483.119 210.789 483.119 210.789 483.119 210.789C483.119 258.266 483.119 258.266 483.119 258.266C483.206 258.179 483.206 258.179 483.206 257.919ZM9.44745 96.3423C9.70747 96.3423 9.70746 96.3423 9.70746 96.6022C9.70746 96.6022 9.96747 96.6022 9.96747 96.8622C10.2275 97.1221 10.5742 97.1221 10.8342 97.4686C10.8342 97.7285 11.0943 97.7285 11.0943 98.0751C11.3543 98.0751 11.701 98.335 11.961 98.335C11.961 98.5949 12.221 98.5949 12.221 98.9414C12.481 98.9414 12.8277 99.2013 13.0878 99.5479C13.0878 99.5479 13.3478 99.5479 13.6945 99.8078C13.6945 99.8078 13.9545 100.068 14.3012 100.068C14.3012 100.328 14.5612 100.328 14.9079 100.674C14.9079 100.674 15.1679 100.934 15.5146 100.934C15.7746 100.934 15.7746 101.194 16.1213 101.194C16.3814 101.454 16.3814 101.454 16.7281 101.454C16.9881 101.714 16.988 101.714 17.3347 101.714C17.5948 101.974 17.9415 101.974 17.9415 101.974C18.2015 102.234 18.5482 102.234 18.5482 102.234C18.8082 102.494 19.1549 102.494 19.4149 102.494C19.4149 102.753 19.675 102.753 20.0217 102.753C20.0217 102.753 20.2817 103.013 20.6284 103.013C20.9751 103.013 20.8884 103.273 21.2351 103.273C21.4951 103.273 21.8418 103.273 21.8418 103.273C22.1018 103.533 22.4485 103.533 22.4485 103.533C22.7085 103.533 23.0552 103.533 23.3152 103.793C23.3152 103.793 23.5753 103.793 23.922 103.793C24.2687 103.793 24.5287 103.793 24.5287 104.053C24.7887 104.053 25.1354 104.053 25.1354 104.053C25.3954 104.053 25.7421 104.053 26.0021 104.053C26.2621 104.053 26.2621 104.053 26.6088 104.313C26.8689 104.313 27.2155 104.313 27.4756 104.313C27.7356 104.313 27.7356 104.313 28.0823 104.313C28.3423 104.313 28.9491 104.313 29.2957 104.313C31.0292 104.313 31.0292 104.313 31.0292 104.313C39.3499 103.447 46.7171 99.288 52.6109 91.8372C58.5047 84.1266 58.5047 84.1266 58.5047 84.1266C63.2718 77.2824 69.4256 74.0768 76.8796 74.0768C79.2198 73.8169 79.2198 73.8169 79.2198 73.8169C83.6401 74.6833 87.8005 76.7625 91.3541 80.3146C92.2208 81.5275 93.4343 82.6538 94.301 84.1266C100.802 91.8373 100.802 91.8372 100.802 91.8372C106.695 99.8078 115.016 104.313 123.597 104.313C130.097 104.313 130.097 104.313 130.097 104.313C138.678 104.313 146.652 99.8944 152.632 91.8372C159.133 84.1266 159.133 84.1266 159.133 84.1266C162.947 78.4953 168.32 74.9432 174.214 74.0768C176.554 74.0768 176.554 74.0768 176.554 74.0768C183.922 74.0768 190.509 77.369 194.929 84.1266C200.823 91.8373 200.823 91.8372 200.823 91.8372C206.717 99.288 214.171 103.36 222.405 104.313C224.138 104.313 224.138 104.313 224.138 104.313C232.719 104.313 240.433 100.154 247.54 91.8372C253.174 84.1266 253.174 84.1266 253.174 84.1266C257.334 78.2354 262.621 74.5966 269.122 74.0768C270.855 74.0768 270.855 74.0768 270.855 74.0768C277.963 74.0768 284.463 77.369 289.23 84.1266C294.864 91.8373 294.864 91.8372 294.864 91.8372C300.758 99.288 308.472 103.36 316.792 104.313C318.266 104.313 318.266 104.313 318.266 104.313C320.606 104.313 322.686 104.053 325.113 103.447C331.614 101.974 337.247 97.8152 341.668 91.9239C347.302 84.2133 347.302 84.2133 347.302 84.2133C352.935 77.369 358.569 74.1635 364.203 74.1635C367.496 74.1635 367.496 74.1635 367.496 74.1635C373.13 74.1635 378.764 77.4556 384.398 84.2133C390.032 91.9239 390.032 91.9239 390.032 91.9239C395.925 99.8944 404.246 104.4 413.434 104.4C415.254 104.4 415.254 104.4 415.254 104.4C416.727 104.14 418.201 103.793 419.674 103.533C426.175 101.714 432.068 97.9018 436.835 92.0105C442.729 84.2999 442.729 84.2999 442.729 84.2999C447.15 77.4556 453.65 74.2501 461.104 74.2501C462.577 74.2501 462.578 74.2501 462.578 74.2501C469.078 74.8565 474.712 78.4086 478.525 84.2999C483.292 90.7976 483.292 90.7976 483.292 90.7976C483.292 137.928 483.292 137.928 483.292 137.928C483.032 137.668 483.033 137.668 483.033 137.321C482.772 137.321 482.772 137.061 482.426 136.715C482.426 136.715 482.166 136.455 481.819 136.108C481.819 136.108 481.559 135.848 481.559 135.502C481.299 135.502 480.952 135.242 480.952 134.895C480.692 134.895 480.692 134.636 480.346 134.636C480.086 134.376 480.086 134.029 479.739 134.029C479.479 133.769 479.479 133.769 479.132 133.423C478.872 133.163 478.872 133.163 478.525 132.816C478.265 132.816 478.265 132.556 477.919 132.556C477.659 132.296 477.659 132.296 477.312 131.95C477.052 131.69 476.705 131.69 476.705 131.343C476.445 131.343 476.099 131.083 475.839 131.083C475.839 130.824 475.579 130.824 475.232 130.477C475.232 130.477 474.972 130.217 474.625 130.217C474.365 130.217 474.018 129.957 474.018 129.957C473.758 129.697 473.412 129.697 473.152 129.351C472.892 129.351 472.892 129.351 472.545 129.091C472.285 129.091 471.938 128.831 471.678 128.831C471.678 128.831 471.418 128.571 471.072 128.571C470.811 128.311 470.465 128.311 470.205 128.311C470.205 128.051 469.945 128.051 469.598 128.051C469.338 127.791 468.991 127.791 468.731 127.791C468.471 127.791 468.471 127.531 468.125 127.531C467.865 127.531 467.518 127.271 467.258 127.271C466.998 127.271 466.651 127.271 466.651 127.012C466.391 127.012 465.784 127.012 465.438 127.012C465.438 127.012 465.178 126.752 464.831 126.752C464.571 126.752 464.224 126.752 463.964 126.752C463.704 126.492 463.358 126.492 463.358 126.492C462.751 126.492 462.144 126.492 461.624 126.232C460.151 126.232 460.151 126.232 460.151 126.232C451.57 126.232 443.249 130.997 437.355 138.707C431.722 146.678 431.722 146.678 431.722 146.678C426.695 152.569 421.928 155.861 416.64 156.728C414.3 156.728 414.3 156.728 414.3 156.728C413.434 156.728 413.434 156.728 413.434 156.728C406.933 156.728 400.693 153.176 395.059 146.678C389.425 138.707 389.425 138.707 389.425 138.707C383.184 131.603 375.817 127.185 367.496 126.232C364.203 126.232 364.203 126.232 364.203 126.232C355.882 127.098 348.515 131.603 342.274 138.707C336.641 146.678 336.641 146.678 336.641 146.678C331.354 153.176 324.766 156.728 318.266 156.728C314.972 156.728 314.972 156.728 314.972 156.728C309.685 155.861 304.918 152.569 299.891 146.678C294.257 138.707 294.257 138.707 294.257 138.707C288.363 130.997 280.043 126.232 271.462 126.232C269.989 126.232 269.989 126.232 269.989 126.232C261.148 127.445 253.087 131.863 248.06 138.707C241.56 146.678 241.56 146.678 241.56 146.678C237.139 152.569 231.505 156.208 225.265 156.728C225.005 156.728 224.398 156.728 224.051 156.728C220.758 156.728 220.758 156.728 220.758 156.728C214.864 155.861 209.49 152.309 205.677 146.678C200.043 138.707 200.043 138.707 200.043 138.707C194.149 130.997 185.828 126.232 177.248 126.232C174.908 126.232 174.908 126.232 174.908 126.232C166.934 127.445 158.613 132.123 152.979 138.707C147.345 146.678 147.345 146.678 147.345 146.678C142.578 153.176 136.424 156.728 129.837 156.728C123.337 156.728 123.337 156.728 123.337 156.728C116.489 156.728 110.336 153.176 105.569 146.678C99.9348 138.707 99.9348 138.707 99.9348 138.707C94.301 132.21 85.9803 127.445 78.0063 126.232C75.6661 126.232 75.6662 126.232 75.6662 126.232C67.0855 126.232 58.7648 130.997 53.131 138.707C47.2372 146.678 47.2372 146.678 47.2372 146.678C43.4235 152.309 38.0498 155.861 32.156 156.728C28.8624 156.728 28.8624 156.728 28.8624 156.728C22.3619 156.728 16.1213 153.176 11.3543 146.678C9.44746 144.079 9.44745 144.079 9.44745 144.079C9.44745 96.3423 9.44745 96.3423 9.44745 96.3423ZM9.44745 36.4767C9.70747 36.4767 9.70746 36.4767 9.70746 36.4767C9.70746 36.7366 9.96747 36.7366 9.96747 37.0831C10.2275 37.0831 10.5742 37.343 10.8342 37.6896L11.0943 37.9495C11.3543 38.2094 11.701 38.2094 11.961 38.5559C11.961 38.8159 12.221 38.8159 12.221 38.8159C12.481 39.0758 12.8277 39.4223 13.0878 39.4223C13.0878 39.6822 13.3478 39.6822 13.6945 39.6822C13.6945 39.9421 13.9545 40.2887 14.3012 40.2887C14.3012 40.2887 14.5612 40.5486 14.9079 40.5486C14.9079 40.8085 15.1679 40.8085 15.5146 41.155C15.7746 41.155 15.7746 41.155 16.1213 41.4149C16.3814 41.4149 16.3814 41.6749 16.7281 41.6749C17.0748 41.6749 16.988 41.9348 17.3347 41.9348C17.5948 41.9348 17.9415 42.1947 17.9415 42.1947C18.2015 42.1947 18.5482 42.4546 18.5482 42.4546C18.8082 42.4546 19.1549 42.7145 19.4149 42.7145C19.4149 42.7145 19.675 42.9744 20.0217 42.9744C20.0217 42.9744 20.2817 42.9744 20.6284 43.2343C20.8884 43.2343 20.8884 43.2343 21.2351 43.2343C21.4951 43.4942 21.8418 43.4942 21.8418 43.4942C22.1018 43.4942 22.4485 43.4942 22.4485 43.7541C22.7085 43.7541 23.0552 43.7541 23.3152 43.7541C23.3152 43.7541 23.5753 44.014 23.922 44.014C24.2687 44.014 24.5287 44.014 24.5287 44.014C24.7887 44.014 25.1354 44.014 25.1354 44.2739C25.3954 44.2739 25.7421 44.2739 26.0021 44.2739C26.2621 44.2739 26.2621 44.2739 26.6088 44.2739C26.9555 44.2739 27.2155 44.2739 27.4756 44.2739C27.7356 44.2739 27.7356 44.2739 28.0823 44.2739C28.3423 44.5338 28.9491 44.5338 29.2957 44.5338C31.0292 44.5338 31.0292 44.5338 31.0292 44.5338C32.5027 44.2739 33.9761 43.9274 35.4496 43.6675C41.9501 41.8481 47.8439 38.0361 52.6109 32.1449C58.5047 24.1743 58.5047 24.1743 58.5047 24.1743C63.2718 17.6766 69.4256 14.1245 76.8796 14.1245C79.2198 14.1245 79.2198 14.1245 79.2198 14.1245C85.1136 14.9909 90.4874 18.543 94.301 24.5209C100.802 32.2315 100.802 32.2315 100.802 32.2315C106.695 39.9421 115.016 44.7071 123.597 44.7071C130.097 44.7071 130.097 44.7071 130.097 44.7071C138.678 44.7071 146.652 39.9421 152.632 32.2315C159.133 24.261 159.133 24.261 159.133 24.261C162.947 18.6296 168.32 15.0775 174.214 14.2112C176.554 14.2112 176.554 14.2112 176.554 14.2112C183.922 14.2112 190.509 17.7632 194.929 24.261C200.823 32.2315 200.823 32.2315 200.823 32.2315C206.717 39.3357 214.171 43.7541 222.405 44.7071C224.138 44.7071 224.138 44.7071 224.138 44.7071C227.432 44.7071 230.639 44.1007 233.586 42.8878C234.452 42.2813 235.319 42.0214 236.533 41.4149C240.346 39.3357 243.9 36.39 247.453 32.2315C253.087 24.261 253.087 24.261 253.087 24.261C257.247 18.6296 262.535 15.0775 269.035 14.2112C270.769 14.2112 270.769 14.2112 270.769 14.2112C277.876 14.2112 284.376 17.7632 289.143 24.261C294.777 32.2315 294.777 32.2315 294.777 32.2315C300.671 39.3357 308.385 43.7541 316.706 44.7071C318.179 44.7071 318.179 44.7071 318.179 44.7071C327.367 44.7071 335.687 40.2887 341.581 32.2315C347.215 24.5209 347.215 24.5209 347.215 24.5209C352.849 17.6766 358.482 14.1245 364.116 14.1245C365.85 14.1245 365.85 14.1245 365.85 14.1245C367.323 14.1245 367.323 14.1245 367.323 14.1245C368.537 14.1245 369.403 14.3844 370.617 14.3844C375.037 15.5973 379.804 18.8029 384.225 24.1743C389.858 32.1449 389.858 32.1449 389.858 32.1449C395.752 40.1154 404.073 44.6205 413.26 44.6205C415.08 44.6205 415.08 44.6205 415.08 44.6205C423.401 43.7541 430.768 39.249 436.662 32.1449C442.556 24.1743 442.556 24.1743 442.556 24.1743C446.976 17.6766 453.477 14.1245 460.931 14.1245C462.404 14.1245 462.404 14.1245 462.404 14.1245C468.905 14.9909 474.538 18.543 478.352 24.1743C483.119 30.672 483.119 30.672 483.119 30.672C483.119 77.8022 483.119 77.8022 483.119 77.8022C482.859 77.8022 482.859 77.5423 482.859 77.5423C482.599 77.2824 482.599 77.2824 482.252 76.9358C482.252 76.6759 481.992 76.6759 481.646 76.3294C481.646 76.0695 481.386 76.0695 481.386 75.7229C481.126 75.463 480.779 75.463 480.779 75.1165C480.519 74.8565 480.519 74.8565 480.172 74.51C479.912 74.51 479.912 74.2501 479.566 73.9035C479.306 73.9035 479.305 73.6436 478.959 73.6436C478.699 73.3837 478.699 73.0372 478.352 73.0372C478.092 72.7773 478.092 72.7773 477.745 72.4307C477.485 72.4307 477.485 72.1708 477.139 72.1708C476.879 71.9109 476.532 71.9109 476.532 71.5644C476.272 71.5644 475.925 71.3045 475.665 70.9579C475.665 70.9579 475.405 70.9579 475.058 70.698C475.058 70.698 474.798 70.4381 474.452 70.4381C474.192 70.1782 473.845 70.1782 473.845 69.8316C473.585 69.8316 473.238 69.5717 472.978 69.5717C472.718 69.5717 472.718 69.3118 472.372 69.3118C472.112 69.0519 471.765 69.0519 471.505 69.0519C471.505 68.792 471.245 68.792 470.898 68.4455C470.638 68.4455 470.291 68.4455 470.031 68.1856C470.031 68.1856 469.771 68.1855 469.425 67.9256C469.165 67.9256 468.818 67.9256 468.558 67.6657C468.298 67.6657 468.298 67.6657 467.951 67.6657C467.691 67.4058 467.345 67.4058 467.085 67.4058C466.825 67.4058 466.478 67.1459 466.478 67.1459C466.218 67.1459 465.611 67.1459 465.264 66.886C465.264 66.886 465.004 66.886 464.658 66.886C464.398 66.886 464.051 66.6261 463.791 66.6261C463.531 66.6261 463.184 66.6261 463.184 66.6261C462.577 66.6261 461.971 66.3662 461.451 66.3662C459.977 66.3662 459.977 66.3662 459.977 66.3662C451.397 66.3662 443.076 70.7846 437.182 78.8418C431.548 86.5524 431.548 86.5524 431.548 86.5524C430.942 87.4188 430.335 88.0253 429.728 88.6317C425.308 93.3967 421.147 96.0824 416.38 96.9488C413.087 96.9488 413.087 96.9488 413.087 96.9488C406.586 96.9488 400.346 93.3967 394.712 86.5524C389.078 78.8418 389.078 78.8418 389.078 78.8418C382.838 71.3911 375.47 67.3192 367.15 66.3662C363.856 66.3662 363.856 66.3662 363.856 66.3662C361.169 66.6261 358.829 67.2326 356.489 68.1856C351.202 70.2648 346.088 73.8169 342.014 78.8418C336.381 86.5524 336.381 86.5524 336.381 86.5524C331.093 93.3967 324.506 96.9488 318.006 96.9488C314.712 96.9488 314.712 96.9488 314.712 96.9488C309.425 96.0824 304.658 92.7903 299.631 86.5524C293.997 78.8418 293.997 78.8418 293.997 78.8418C288.103 70.8713 279.783 66.3662 271.202 66.3662C269.729 66.3662 269.729 66.3662 269.729 66.3662C260.888 67.2326 252.827 71.9975 247.8 78.8418C241.3 86.5524 241.3 86.5524 241.3 86.5524C236.533 93.0502 230.379 96.9488 223.791 96.9488C220.498 96.9488 220.498 96.9488 220.498 96.9488C214.604 96.0824 209.23 92.1838 205.417 86.5524C199.783 78.8418 199.783 78.8418 199.783 78.8418C193.889 70.8713 185.568 66.3662 176.988 66.3662C174.647 66.3662 174.647 66.3662 174.647 66.3662C171.094 66.6261 167.54 67.839 164.247 69.6584C159.826 71.7376 155.926 75.0298 152.719 78.8418C147.085 86.5524 147.085 86.5524 147.085 86.5524C142.318 93.0502 136.164 96.9488 129.577 96.9488C123.077 96.9488 123.077 96.9488 123.077 96.9488C116.229 96.9488 110.076 93.1368 105.309 86.5524C99.6747 78.8418 99.6747 78.8418 99.6747 78.8418C94.041 71.9975 85.7203 67.3192 77.7463 66.3662C75.4061 66.3662 75.4061 66.3662 75.4061 66.3662C66.8254 66.3662 58.5047 70.7846 52.8709 78.8418C46.9771 86.5524 46.9771 86.5524 46.9771 86.5524C43.6835 91.5773 39.2632 94.8695 34.2361 96.3423C33.3694 96.6022 32.7627 96.6022 31.896 96.9488C28.6024 96.9488 28.6023 96.9488 28.6023 96.9488C22.1018 96.9488 15.8613 93.1368 11.0943 86.5524C8.75408 83.8667 8.75407 83.8667 8.75407 83.8667C9.44746 36.4767 9.44745 36.4767 9.44745 36.4767ZM483.466 18.3697C483.206 18.3697 483.206 18.1098 483.206 18.1098C482.946 17.8499 482.946 17.5033 482.599 17.5033C482.599 17.2434 482.339 16.8969 481.992 16.8969C481.992 16.637 481.732 16.2904 481.732 16.2904C481.472 16.0305 481.126 15.684 481.126 15.684C480.866 15.4241 480.866 15.0775 480.519 15.0775C480.259 14.8176 480.259 14.8176 479.912 14.4711C479.652 14.2112 479.652 14.2112 479.306 13.8646C479.045 13.8646 479.046 13.6047 478.699 13.2582C478.439 13.2582 478.439 12.9982 478.092 12.9982C477.832 12.7383 477.832 12.7383 477.485 12.3918C477.225 12.3918 476.879 12.1319 476.879 12.1319C476.619 11.872 476.272 11.872 476.012 11.5254C476.012 11.5254 475.752 11.2655 475.405 11.2655C475.405 11.0056 475.145 11.0056 474.799 10.6591C474.538 10.6591 474.192 10.3992 474.192 10.3992C473.932 10.1392 473.585 10.1392 473.325 10.1392C473.065 9.87934 473.065 9.87934 472.718 9.5328C472.458 9.5328 472.112 9.53279 471.852 9.27289C471.852 9.27289 471.592 9.01298 471.245 9.01298C470.985 9.01298 470.638 8.75307 470.378 8.75307C470.378 8.75307 470.118 8.49316 469.771 8.49316C469.511 8.49316 469.165 8.23325 468.905 8.23325C468.645 8.23325 468.645 8.23325 468.298 7.97334C468.038 7.97334 467.691 7.97334 467.431 7.71343C467.171 7.71343 466.824 7.71343 466.824 7.71343C466.564 7.45353 465.958 7.45353 465.611 7.45353C465.611 7.45353 465.351 7.45353 465.004 7.19362C464.744 7.19362 464.398 7.19362 464.138 7.19362C463.878 7.19362 463.531 7.19362 463.531 6.93371C462.924 6.93371 462.318 6.93371 461.797 6.93371C460.324 6.93371 460.324 6.93371 460.324 6.93371C451.743 6.93371 443.423 11.3522 437.529 19.4093C431.895 27.12 431.895 27.12 431.895 27.12C426.868 33.3578 422.101 36.3034 416.814 37.1698C413.52 37.1698 413.52 37.1698 413.52 37.1698C410.833 37.1698 408.233 36.5633 405.546 35.3504C401.733 33.531 398.439 30.932 395.145 27.0333C389.512 19.0628 389.512 19.0628 389.512 19.0628C383.271 11.9586 375.904 7.80007 367.583 6.93371C366.11 6.93371 366.11 6.93371 366.11 6.93371C364.376 6.93371 364.376 6.93371 364.376 6.93371C356.056 7.80007 348.688 11.9586 342.448 19.4093C336.814 27.12 336.814 27.12 336.814 27.12C331.527 33.6177 324.94 37.1698 318.439 37.1698C315.146 37.1698 315.146 37.1698 315.146 37.1698C309.858 36.3034 305.091 33.3578 300.064 27.12C294.431 19.4093 294.431 19.4093 294.431 19.4093C292.957 17.3301 291.137 15.5973 289.663 14.0379C284.376 9.27289 278.136 6.93371 271.635 6.93371C270.162 6.93371 270.162 6.93371 270.162 6.93371C261.321 7.80007 253.261 12.3052 248.233 19.0628C241.733 27.0333 241.733 27.0333 241.733 27.0333C237.313 33.2711 231.679 36.8232 225.438 37.0831C225.178 37.0831 224.572 37.0831 224.225 37.0831C220.931 37.0831 220.931 37.0831 220.931 37.0831C218.851 36.8232 216.511 36.2168 214.431 35.0039C211.137 33.1845 208.19 30.5854 205.85 27.0333C202.903 23.2213 202.903 23.2213 202.903 23.2213C200.216 19.4093 200.216 19.4093 200.216 19.4093C198.743 17.59 197.269 15.8572 195.796 14.6443C190.769 9.61943 184.268 6.93371 177.421 6.93371C175.081 6.93371 175.081 6.93371 175.081 6.93371C167.107 7.80007 158.786 12.5651 153.152 19.4093C147.519 27.12 147.519 27.12 147.519 27.12C142.752 33.6177 136.598 37.1698 130.011 37.1698C123.51 37.1698 123.51 37.1698 123.51 37.1698C121.43 37.1698 119.35 36.9099 117.27 36.3034C112.849 34.8306 108.949 31.5384 105.742 27.12C100.108 19.1494 100.108 19.1494 100.108 19.1494C94.4743 12.6517 86.1537 7.88671 78.1797 7.02034C75.8395 7.02034 75.8395 7.02034 75.8395 7.02034C67.2588 7.02034 58.9381 11.4388 53.3043 19.496C47.4105 27.2066 47.4105 27.2066 47.4105 27.2066C44.1169 32.2315 39.6965 35.5237 34.6695 36.9965C33.8027 36.9965 33.1961 37.2564 32.3293 37.2564C29.9891 37.2564 29.9891 37.2564 29.9891 37.2564C29.1224 37.2564 29.1224 37.2564 29.1224 37.2564C29.1224 37.2564 29.1224 37.2564 28.8624 37.2564C25.0487 37.2564 20.8884 35.7836 17.5948 33.0979C15.5146 31.625 13.4344 29.5458 11.7009 27.2066C9.36076 24.5209 9.3608 24.5209 9.3608 24.5209C9.3608 -0.950192 9.3608 -0.950192 9.3608 -0.950192C483.379 -0.950192 483.379 -0.950192 483.379 -0.950192V18.3697H483.466ZM0 -11C0 13.3448 0 13.3448 0 13.3448C0 14.8176 0 14.8176 0 14.8176C0 22.2683 0 22.2683 0 22.2683C0 24.3476 0 24.3476 0 24.3476C0 73.2971 0 73.2971 0 73.2971C0 75.1165 0 75.1165 0 75.1165C0 82.5672 0 82.5672 0 82.5672C0 84.6464 0 84.6464 0 84.6464C0 133.596 0 133.596 0 133.596C0 135.069 0 135.069 0 135.069C0 142.519 0 142.519 0 142.519C0 144.599 0 144.599 0 144.599C0 193.548 0 193.548 0 193.548C0 195.021 0 195.021 0 195.021C0 202.732 0 202.732 0 202.732C0 204.551 0 204.551 0 204.551C0 253.501 0 253.501 0 253.501C0 255.32 0 255.32 0 255.32C0 262.771 0 262.771 0 262.771C0 264.85 0 264.85 0 264.85C0 313.799 0 313.799 0 313.799C0 315.272 0 315.272 0 315.272C0 322.723 0 322.723 0 322.723C0 324.802 0 324.802 0 324.802C0 373.752 0 373.752 0 373.752C0 375.224 0 375.224 0 375.224C0 382.935 0 382.935 0 382.935C0 384.754 0 384.754 0 384.754C0 433.704 0 433.704 0 433.704C0 435.523 0 435.523 0 435.523C0 442.974 0 442.974 0 442.974C0 445.053 0 445.053 0 445.053C0 483 0 483 0 483C493 483 493 483 493 483C493 461.081 493 461.081 493 461.081C493 459.608 493 459.608 493 459.608C493 452.158 493 452.157 493 452.157C493 450.338 493 450.338 493 450.338C493 400.869 493 400.869 493 400.869C493 399.656 493 399.656 493 399.656C493 392.205 493 392.205 493 392.205C493 390.386 493 390.386 493 390.386C493 340.917 493 340.917 493 340.917C493 339.444 493 339.444 493 339.444C493 331.993 493 331.993 493 331.993C493 330.174 493 330.174 493 330.174C493 280.964 493 280.964 493 280.964C493 279.491 493 279.491 493 279.491C493 272.041 493 272.041 493 272.041C493 270.221 493 270.221 493 270.221C493 220.752 493 220.752 493 220.752C493 219.279 493 219.279 493 219.279C493 212.175 493 212.175 493 212.175C493 210.356 493 210.356 493 210.356C493 160.886 493 160.886 493 160.886C493 159.414 493 159.414 493 159.414C493 151.963 493 151.963 493 151.963C493 150.143 493 150.143 493 150.143C493 100.934 493 100.934 493 100.934C493 99.4612 493 99.4612 493 99.4612C493 92.0105 493 92.0105 493 92.0105C493 90.1912 493 90.1912 493 90.1912C493 40.7219 493 40.7219 493 40.7219C493 39.249 493 39.249 493 39.249C493 31.7983 493 31.7983 493 31.7983C493 30.3255 493 30.3255 493 30.3255C493 -10.5668 493 -10.5668 493 -10.5668H0V-11Z" fill="#FFF602"/>
</svg>
